<?xml version="1.0" encoding="UTF-8"?>
<svg width="240px" height="43px" viewBox="0 0 240 43" version="1.1" xmlns="http://www.w3.org/2000/svg" xmlns:xlink="http://www.w3.org/1999/xlink">
    <title>logo-MicahProjects</title>
    <g id="Symbols" stroke="none" stroke-width="1" fill="none" fill-rule="evenodd">
        <g id="logo-MicahProjects" transform="translate(-0.000000, 0.000000)" fill-rule="nonzero">
            <path d="M234.028149,27.6314892 L233.856018,28.0498855 C233.301966,29.1995698 232.246014,30.0277142 230.99686,30.292219 C229.747706,30.5567238 228.446418,30.2277183 227.473414,29.4013837 L222.024428,23.9542771 C222.398579,23.4170159 222.644978,22.8014395 222.744823,22.1545213 L230.33283,22.1545213 C231.633684,22.2146861 232.829443,22.8860971 233.557474,23.9651379 C234.285505,25.0441786 234.46004,26.4037314 234.028149,27.6314892 Z M225.067299,36.8203805 L224.650075,36.9908982 C224.211728,37.1456813 223.750064,37.2241857 223.28516,37.2230237 C221.139589,37.2236769 219.353301,35.5773182 219.180705,33.4400667 L219.180705,25.7668051 C219.83621,25.6538485 220.457159,25.3924877 220.996009,25.0027334 L226.331104,30.3344695 C227.207207,31.2972337 227.576731,32.6170163 227.327835,33.8943652 C227.078938,35.1717142 226.240876,36.2564943 225.067299,36.8203805 Z M227.369068,13.5418202 C228.331774,12.6653104 229.65254,12.2953958 230.930838,12.5442542 C232.209136,12.7931126 233.294383,13.6314284 233.857474,14.8049797 L234.028149,15.2201587 C234.452468,16.4243419 234.293461,17.7571442 233.597738,18.8278734 C232.902014,19.8986026 231.748389,20.5859616 230.475032,20.6884608 L222.724277,20.6884608 C222.60878,20.0553889 222.351133,19.4567338 221.970718,18.9375307 L227.369068,13.5418202 Z M217.713061,17.2024445 C217.088781,17.3091095 216.495514,17.5513311 215.975086,17.912032 L210.5625,12.5006392 C209.685431,11.5385179 209.315282,10.2185753 209.564297,8.94107153 C209.813313,7.66356778 210.65216,6.57898603 211.826467,6.01621554 L212.243529,5.8450027 C213.448544,5.42338642 214.781049,5.583705 215.851502,6.27909138 C216.921954,6.97447775 217.60947,8.12640194 217.713061,9.39811376 L217.713061,17.2024445 Z M217.713061,33.2964031 C217.653358,34.596986 216.981355,35.79263 215.901074,36.5203372 C214.820792,37.2480444 213.459657,37.4219774 212.23091,36.9893299 L211.815304,36.8188123 C210.66504,36.2650119 209.836403,35.2098974 209.571459,33.9616959 C209.306515,32.7134943 209.635161,31.4130483 210.461389,30.4402528 L215.902448,25.0027334 C216.439507,25.3922876 217.059005,25.6532154 217.713061,25.76535 L217.713061,33.2964031 Z M203.034512,28.0372587 L202.863837,27.6204307 C202.439395,26.4162762 202.59862,25.0834136 203.294788,24.0129567 C203.990955,22.9424997 205.145108,22.2558589 206.418572,22.1545213 L214.15509,22.1545213 C214.256452,22.8003346 214.50219,23.4150044 214.874029,23.952822 L209.524536,29.3003374 C208.561149,30.1758684 207.24052,30.5451402 205.96236,30.2963867 C204.684201,30.0476331 203.598741,29.210092 203.034512,28.0372587 Z M202.870308,15.2091649 L203.044057,14.7938242 C203.244071,14.3747116 203.514425,13.9929243 203.843399,13.6650158 C205.361308,12.1490517 207.78914,12.0505293 209.425043,13.4385105 L214.927739,18.9391474 C214.551196,19.4587652 214.294859,20.0554887 214.177254,20.6861974 L206.565466,20.6861974 C205.264507,20.6262667 204.068582,19.9548866 203.340527,18.8757497 C202.612472,17.7966127 202.438098,16.4369094 202.870308,15.2091649 Z M218.485548,0 C206.604149,0 196.972519,9.62610318 196.972519,21.4999138 C196.972519,33.3737245 206.603976,42.9995119 218.485375,43 C230.366774,43.0004881 239.999071,33.375492 240,21.5016814 C240.000519,15.79909 237.734022,10.3298987 233.699195,6.29746663 C229.664368,2.26503456 224.191784,0 218.485548,0 Z M6.58563416,25.4463671 C6.47213232,25.7609518 6.39394588,26.0871621 6.35251294,26.4189983 C6.30631207,26.0861754 6.22178923,25.7598012 6.10062554,25.4463671 L2.19515746,15.1949376 L0,15.1949376 L0,28.0104047 L1.45745254,28.0104047 L1.45745254,16.9039942 C1.54914015,17.4930713 1.71831352,18.0674585 1.96058024,18.6122424 L5.49865185,28.0104047 L6.95448662,28.0104047 L10.7437985,18.3604674 C10.9614438,17.8547498 11.1245727,17.3273043 11.2304249,16.7870553 L11.2304249,28.0104047 L12.8236087,28.0104047 L12.8236087,15.1949376 L10.6268335,15.1949376 L6.58563416,25.4463671 Z M19.8761324,15.1949376 L21.470934,15.1949376 L21.470934,28.0104047 L19.8761324,28.0104047 L19.8761324,15.1949376 Z M33.7584124,16.418487 C34.8860365,16.3843815 35.9929504,16.7262887 36.9046592,17.3903098 L37.7009275,16.1856763 C37.256935,15.8400168 36.7581896,15.5710488 36.2253559,15.3899165 C35.4548389,15.1006021 34.6374607,14.9560641 33.8143874,14.963582 C32.0746039,14.944238 30.402375,15.6357721 29.1849813,16.8780283 C27.9675875,18.1202846 27.3106325,19.8055025 27.366264,21.5433933 C27.2736793,23.3312637 27.9354918,25.0760122 29.1907356,26.3532814 C30.3799139,27.5633258 31.9984618,28.2487537 33.6878569,28.266304 L33.9700172,28.2630204 C34.5659302,28.266304 35.1598948,28.1947395 35.7379206,28.0498855 C36.3358041,27.9071301 36.9159848,27.698495 37.4678063,27.4278122 L37.0216242,26.1852176 C36.1945712,26.5490339 35.3066737,26.751545 34.405651,26.7830341 L34.0672455,26.7868068 C32.6704584,26.826923 31.3240216,26.2640327 30.3718755,25.2419233 C29.4197294,24.2198139 28.9540836,22.8374705 29.0938848,21.4480056 C28.9954782,20.1503478 29.4426346,18.8704053 30.3278359,17.9159386 C31.2130372,16.9614719 32.4562017,16.4188287 33.7584124,16.418487 Z M44.6537964,22.7671044 L46.7502696,16.9031858 L48.8310504,22.7671044 L44.6537964,22.7671044 Z M45.8955996,14.8255123 L41.1173425,28.0119891 L42.8266825,28.0119891 L44.1490509,24.2242728 L49.3333693,24.2242728 L50.6573555,28.0119891 L52.3666954,28.0119891 L47.6073662,14.8255123 L45.8955996,14.8255123 Z M66.6069887,20.6894309 L59.0503667,20.6894309 L59.0503667,15.195746 L57.4568593,15.195746 L57.4568593,28.0100328 L59.0503667,28.0100328 L59.0503667,22.1461143 L66.6069887,22.1461143 L66.6069887,28.0100328 L68.2004961,28.0100328 L68.2004961,15.195746 L66.6069887,15.195746 L66.6069887,20.6894309 Z M87.9023943,21.6808163 C87.4561292,21.840432 86.987469,21.9262612 86.5148264,21.9355383 L86.2309102,21.9318961 C85.6592642,21.9281745 85.0883953,21.8891366 84.5215703,21.8150058 L84.5215703,16.5337606 L86.7175366,16.5337606 C87.4250621,16.4346911 88.142087,16.6324112 88.6986626,17.0800573 C89.1963487,17.6230573 89.4557831,18.3425819 89.4190573,19.0780254 C89.4879442,20.1725958 88.8889821,21.2004925 87.9023943,21.6808163 Z M86.949849,15.1949376 L82.9290336,15.1949376 L82.9290336,28.0104047 L84.5215703,28.0104047 L84.5215703,23.1538288 C85.1785524,23.242441 85.8399399,23.2946338 86.5026962,23.3101676 C87.7077226,23.4411586 88.9094286,23.0359929 89.7887672,22.2022399 C90.6681058,21.3684869 91.1361146,20.1904971 91.0685396,18.981021 C91.130496,17.9598549 90.7733232,16.9575606 90.0794327,16.2054005 C89.2376011,15.421776 88.0913315,15.0516746 86.949849,15.1949376 Z M98.1414473,21.1772016 L98.1414473,16.5337606 L100.22061,16.5337606 C100.363783,16.5337606 100.494194,16.5346978 100.61356,16.5369438 L100.940247,16.5479803 C101.534233,16.5793931 101.79252,16.6713048 102.086389,16.9039942 C102.58519,17.3496387 102.843594,18.0048579 102.783164,18.6707684 C102.868136,19.367987 102.623402,20.0649904 102.121119,20.5562732 C101.618836,21.047556 100.916286,21.2770909 100.22061,21.1772016 L98.1414473,21.1772016 Z M103.366048,21.311391 C104.08945,20.6159801 104.496494,19.6549588 104.492504,18.6518526 C104.501553,17.7161463 104.138453,16.8151379 103.483013,16.1468745 C102.664674,15.3942871 101.553293,15.0453207 100.451305,15.1949376 L96.5474547,15.1949376 L96.5474547,28.0104047 L98.1414473,28.0104047 L98.1414473,22.5160245 L99.852405,22.5160245 L103.384976,28.0104047 L105.211281,28.0104047 L101.422778,22.2807888 C102.158853,22.177661 102.841147,21.8372998 103.366048,21.311391 Z M116.017526,26.864087 C113.273885,26.6917199 111.178593,24.3472437 111.315951,21.6033744 C111.11439,19.8032985 111.961897,18.0468349 113.496803,17.0835483 C115.031709,16.1202617 116.982959,16.1202617 118.517865,17.0835483 C120.052771,18.0468349 120.900278,19.8032985 120.698717,21.6033744 C120.837035,24.3400232 118.753333,26.6816834 116.017526,26.864087 Z M116.017526,14.963582 C114.262728,14.9308114 112.572825,15.6263566 111.350092,16.8846458 C110.127359,18.1429351 109.481174,19.8514096 109.565358,21.6033744 C109.485353,23.9552626 110.695219,26.1635363 112.721026,27.3631688 C114.746833,28.5628012 117.266055,28.5628012 119.291862,27.3631688 C121.317669,26.1635363 122.527535,23.9552626 122.44753,21.6033744 C122.536453,19.8539773 121.894897,18.146158 120.675953,16.8874443 C119.457009,15.6287305 117.770014,14.9320262 116.017526,14.963582 Z M128.356288,15.1949376 L128.356288,26.9036972 C128.382355,27.9061744 128.182597,28.9016854 127.771786,29.8166112 C127.385231,30.4921949 126.908466,31.1120567 126.354616,31.6591298 L127.383035,32.5321698 C127.998674,31.9941076 128.529225,31.3659741 128.956644,30.6691348 C129.420118,29.971391 129.755542,29.1967332 129.947207,28.3814467 L129.947207,15.1949376 L128.356288,15.1949376 Z M138.583369,22.1461143 L143.227998,22.1461143 L143.227998,20.807453 L138.583369,20.807453 L138.583369,16.5344073 L144.198663,16.5344073 L144.198663,15.1941292 L136.99148,15.1941292 L136.99148,28.0100328 L144.375,28.0100328 L144.375,26.6697548 L138.583369,26.6697548 L138.583369,22.1461143 Z M155.521948,16.418487 C156.649855,16.3841364 157.757103,16.7260588 158.669003,17.3903098 L159.465272,16.1856763 C159.020866,15.8406499 158.522231,15.5717415 157.9897,15.3899165 C157.219669,15.1008804 156.402873,14.9563483 155.580349,14.963582 C153.840276,14.9439966 152.167662,15.635372 150.949829,16.8776082 C149.731997,18.1198443 149.074575,19.8051971 149.129799,21.5433933 C149.037445,23.3314841 149.699558,25.0763485 150.955104,26.3536125 C152.144569,27.5636522 153.763384,28.2489704 155.452977,28.2663355 L155.73517,28.2630204 C156.330553,28.2663355 156.923988,28.1947819 157.501456,28.0498855 C158.09983,27.9070334 158.680537,27.6984043 159.232959,27.4278122 L158.785968,26.1852176 C157.959442,26.5490966 157.072006,26.7516213 156.171441,26.7830572 L155.833207,26.7868068 C154.436292,26.8273018 153.089608,26.2645331 152.137351,25.2423375 C151.185093,24.220142 150.719542,22.8375756 150.859685,21.4480056 C150.760921,20.1506471 151.207645,18.8708465 152.09243,17.9163647 C152.977216,16.961883 154.220009,16.4190801 155.521948,16.418487 Z M162.880716,16.5344073 L167.156493,16.5344073 L167.156493,28.0116496 L168.748382,28.0116496 L168.748382,16.5344073 L173.024159,16.5344073 L173.024159,15.195746 L162.880716,15.195746 L162.880716,16.5344073 Z M181.488514,16.437419 C182.087283,16.4496765 182.681752,16.54156 183.256255,16.710632 C183.727986,16.8759306 184.178273,17.0969413 184.597552,17.3689688 L185.335418,16.0506784 C184.851021,15.7345188 184.329379,15.4794033 183.782355,15.2911337 C183.082793,15.0794037 182.35516,14.9748529 181.624245,14.9810428 C179.079163,14.9810428 177.388751,16.3403984 177.388751,18.3794318 C177.388751,19.6427248 178.136082,20.6221574 179.885021,21.6043875 L181.8129,22.6443407 L181.8129,22.6443407 L182.265692,22.8854498 L182.265692,22.8854498 C182.717352,23.1285794 183.093817,23.4906027 183.354292,23.9322894 C183.497511,24.2149168 183.56448,24.529991 183.548587,24.8463946 C183.548587,26.0684889 182.635354,26.7868068 181.120308,26.7868068 C180.489786,26.7893678 179.864032,26.6775643 179.273458,26.45683 C178.749555,26.239204 178.254064,25.9587446 177.797886,25.6216218 L176.981072,26.8846196 C177.492187,27.2650628 178.046307,27.5841037 178.63201,27.8351662 C179.388772,28.1245986 180.193254,28.2692076 181.003505,28.2614522 C183.586443,28.2614522 185.218453,26.8846196 185.218453,24.690072 C185.240245,23.8068238 184.879114,22.9572387 184.22789,22.3597019 C183.60327,21.8547212 182.925791,21.4187881 182.207291,21.059519 L181.713341,20.7952246 L181.713341,20.7952246 L181.271197,20.5523595 L181.271197,20.5523595 L180.878229,20.3285026 L180.878229,20.3285026 L180.531808,20.121233 C179.34372,19.3886958 179.041307,18.9418474 179.041307,18.2436417 C179.041307,17.1550902 180.030252,16.437419 181.488514,16.437419 Z" id="Shape" fill="#002A54"></path>
            <path d="M219.182323,9.54426712 C219.2427,8.24438575 219.914684,7.04962062 220.994455,6.32235474 C222.074226,5.59508885 223.43456,5.42101255 224.662856,5.85292473 L225.0783,6.02494594 C226.229268,6.57832916 227.058409,7.63379625 227.323113,8.88251141 C227.587817,10.1312266 227.258158,11.4320235 226.430597,12.4042814 L220.921754,17.910577 C220.400571,17.5502463 219.806928,17.3080191 219.182323,17.2008278 L219.182323,9.54426712 Z" id="Path" fill="#8C1827"></path>
        </g>
    </g>
</svg>